<svg xmlns="http://www.w3.org/2000/svg" xmlns:xlink="http://www.w3.org/1999/xlink" preserveAspectRatio="xMidYMid" width="240" height="240" viewBox="0 0 240 240">
  <defs>
    <style>
      .cls-1 {
        fill: url(#linear-gradient-1);
      }

      .cls-1, .cls-10, .cls-2, .cls-3, .cls-4, .cls-5, .cls-7, .cls-8, .cls-9 {
        fill-rule: evenodd;
      }

      .cls-11, .cls-2, .cls-8, .cls-9 {
        stroke: #00a6de;
        stroke-width: 1px;
      }

      .cls-2 {
        stroke-dasharray: 4,2;
      }

      .cls-11, .cls-2, .cls-4, .cls-8 {
        fill: none;
      }

      .cls-3 {
        fill: url(#linear-gradient-2);
      }

      .cls-4, .cls-5 {
        stroke: #00c5e3;
        stroke-linecap: round;
        stroke-width: 2px;
        stroke-dasharray: 0.001,4;
      }

      .cls-5 {
        fill: url(#linear-gradient-3);
      }

      .cls-6 {
        fill: #0d678d;
      }

      .cls-7 {
        fill: url(#linear-gradient-4);
      }

      .cls-9 {
        fill: url(#linear-gradient-5);
        fill-opacity: 0.63;
      }

      .cls-10 {
        fill: #00a6de;
      }
    </style>

    <linearGradient id="linear-gradient-1" gradientUnits="userSpaceOnUse" x1="94.675" y1="202.94" x2="94.675" y2="11.16">
      <stop offset="0" stop-color="#eaf5f9"/>
      <stop offset="1" stop-color="#dff6ff"/>
    </linearGradient>
    <linearGradient id="linear-gradient-2" gradientUnits="userSpaceOnUse" x1="53.36" y1="59.62" x2="53.36" y2="202.94">
      <stop offset="0" stop-color="#f9f9f9"/>
      <stop offset="1" stop-color="#caedf9"/>
    </linearGradient>
    <linearGradient id="linear-gradient-3" gradientUnits="userSpaceOnUse" x1="95" y1="63.5" x2="95" y2="152.5">
      <stop offset="0" stop-color="#9ae4f3"/>
      <stop offset="1" stop-color="#0ee1d6"/>
    </linearGradient>
    <linearGradient id="linear-gradient-4" gradientUnits="userSpaceOnUse" x1="119.988" y1="96.22" x2="123.792" y2="150.62">
      <stop offset="0" stop-color="#00a6de"/>
      <stop offset="1" stop-color="#0ee1d6"/>
    </linearGradient>
    <linearGradient id="linear-gradient-5" gradientUnits="userSpaceOnUse" x1="140.25" y1="218.5" x2="140.25" y2="55.5">
      <stop offset="0" stop-color="#f7f7f7"/>
      <stop offset="1" stop-color="#d6dbf0"/>
    </linearGradient>
  </defs>
  <g>
    <path d="M177.366,153.553 L94.762,202.006 L11.571,154.572 L10.984,58.685 L93.588,10.232 L176.779,57.666 L177.366,153.553 Z" transform="translate(26 10.5)" class="cls-1"/>
    <path d="M0.487,54.586 L92.668,0.047 L185.504,53.439 " transform="translate(26 10.5)" class="cls-2"/>
    <path d="M94.762,202.006 L11.571,154.572 L10.984,58.685 L94.174,103.552 L94.762,202.006 Z" transform="translate(26 10.5)" class="cls-3"/>
    <path d="M149.608,138.836 L96.069,170.188 L42.149,139.495 L41.768,77.451 L95.308,46.099 L149.228,76.791 L149.608,138.836 Z" transform="translate(26 10.5)" class="cls-4"/>
    <path d="M134.010,130.076 L95.772,152.562 L57.263,130.549 L56.991,86.051 L95.229,63.565 L133.739,85.578 L134.010,130.076 Z" transform="translate(26 10.5)" class="cls-5"/>
    <circle cx="120.67" cy="119.08" r="25.67" class="cls-6"/>
    <path d="M95.069,169.188 L148.608,137.836 L148.228,75.791 L94.174,106.628 L95.069,169.188 Z" transform="translate(26 10.5)" class="cls-7"/>
    <path d="M187.490,163.352 L94.648,218.069 L1.147,164.502 L0.487,56.217 L93.000,106.310 L186.830,55.067 L187.490,163.352 Z" transform="translate(26 10.5)" class="cls-8"/>
    <path d="M93.500,218.060 L187.490,163.352 L186.830,55.067 L93.000,106.310 L93.500,218.060 Z" transform="translate(26 10.5)" class="cls-9"/>
    <path d="M85.500,96.060 L84.500,96.060 L84.500,32.060 L85.500,32.060 L85.500,96.060 Z" transform="translate(26 10.5)" class="cls-2"/>
    <path d="M83.631,70.898 L72.631,58.898 L73.369,58.222 L84.369,70.222 L83.631,70.898 ZM72.000,36.560 L73.000,36.560 L73.000,58.560 L72.000,58.560 L72.000,36.560 Z" transform="translate(26 10.5)" class="cls-10"/>
    <path d="M101.000,95.560 L100.000,95.560 L100.000,41.560 L101.000,41.560 L101.000,95.560 Z" transform="translate(26 10.5)" class="cls-10"/>
    <path d="M101.285,71.971 L100.715,71.149 L113.715,62.149 L114.285,62.971 L101.285,71.971 Z" transform="translate(26 10.5)" class="cls-10"/>
    <path d="M115.500,63.060 L114.500,63.060 L114.500,28.060 L115.500,28.060 L115.500,63.060 Z" transform="translate(26 10.5)" class="cls-2"/>
    <path d="M93.000,99.560 L92.000,99.560 L92.000,69.560 L93.000,69.560 L93.000,99.560 Z" transform="translate(26 10.5)" class="cls-10"/>
    <circle cx="111" cy="37.5" r="3.5" class="cls-11"/>
    <circle cx="98" cy="43.5" r="3.5" class="cls-11"/>
    <circle cx="127" cy="45.5" r="3.5" class="cls-11"/>
    <circle cx="141" cy="34.5" r="3.5" class="cls-11"/>
    <circle cx="119" cy="76.5" r="3.5" class="cls-11"/>
  </g>
</svg>
