<?xml version="1.0" encoding="utf-8"?>
<!-- Generator: Adobe Illustrator 22.0.0, SVG Export Plug-In . SVG Version: 6.00 Build 0)  -->
<svg version="1.1" id="Layer_1" xmlns="http://www.w3.org/2000/svg" xmlns:xlink="http://www.w3.org/1999/xlink" x="0px" y="0px"
	 viewBox="0 0 1920 1080" style="enable-background:new 0 0 1920 1080;" xml:space="preserve">
<style type="text/css">
	.st0{display:none;fill:url(#SVGID_1_);}
	.st1{opacity:0.1;}
	.st2{fill:#FFFFFF;}
</style>
<radialGradient id="SVGID_1_" cx="1167.0162" cy="-167.296" r="1478.9734" gradientTransform="matrix(0.8452 0 0 0.9508 0 0)" gradientUnits="userSpaceOnUse">
	<stop  offset="0.1237" style="stop-color:#03253D"/>
	<stop  offset="0.4893" style="stop-color:#0E1E2F"/>
	<stop  offset="1" style="stop-color:#0B0C15"/>
</radialGradient>
<rect class="st0" width="1920" height="1080"/>
<g class="st1">
	<path class="st2" d="M2676.8,478.6c-3.2,0-5.7,2.4-6,5.5l-133.9-1.2c-0.3-3.1-2.9-5.6-6-5.6c-3.1,0-5.5,2.3-6,5.3l-118.8-4.7
		c-0.2-3.2-2.8-5.8-6.1-5.8c-2.9,0-5.3,2.1-5.9,4.8l-410.7-48.1c0,0,0,0,0-0.1c0-3.4-2.8-6.2-6.2-6.2c-2.6,0-4.8,1.6-5.7,3.9
		l-723.9-198.8c0.1-0.3,0.2-0.6,0.2-1c0-3.4-2.8-6.2-6.2-6.2c-2.9,0-5.3,2.1-5.9,4.8L844.5,178c0,0,0-0.1,0-0.1
		c0-3.4-2.8-6.2-6.2-6.2c-3.4,0-6.2,2.8-6.2,6.2c0,0.7,0.2,1.4,0.4,2L430.8,369.4c-1.1-1.8-2.9-3-5.2-3c-2.5,0-4.6,1.5-5.6,3.6
		L-33.1,218.1c0.1-0.4,0.3-0.8,0.3-1.3c0-3.4-2.8-6.2-6.2-6.2c-3.1,0-5.6,2.4-6,5.4l-495.2-10.6c-0.3-3.1-2.8-5.6-6.1-5.6
		c-3.4,0-6.2,2.8-6.2,6.2c0,1.5,0.6,2.9,1.5,3.9l-202.1,212.8c-1-0.8-2.3-1.3-3.7-1.3c-3.4,0-6.2,2.8-6.2,6.2c0,3.4,2.7,6.1,6.1,6.2
		l40.6,428.3c-2.8,0.6-5,2.9-5,5.9c0,3.4,2.8,6.2,6.2,6.2s6.2-2.8,6.2-6.2c0-0.9-0.2-1.7-0.5-2.5l163.9-94.3
		c1.1,1.5,2.8,2.6,4.9,2.6c3.2,0,5.7-2.5,6-5.6l515-5.1c0.4,3.1,2.9,5.5,6,5.5c2.7,0,4.9-1.7,5.7-4.1l567.6,136.9
		c0,0.3-0.2,0.5-0.2,0.8c0,3.4,2.8,6.2,6.2,6.2c3.3,0,6-2.7,6.1-6l377.4-29.4c0.5,2.9,2.9,5.1,5.9,5.1c3.4,0,6.2-2.8,6.2-6.2
		c0-0.4-0.2-0.8-0.2-1.2l168.6-53.7c1,2.2,3.1,3.7,5.6,3.7c3,0,5.4-2.2,5.9-5l418.3,35.5c0.1,3.3,2.8,6,6.1,6c3.4,0,6.2-2.8,6.2-6.2
		c0-0.2-0.1-0.4-0.1-0.7l335.2-74.3c0.8,2.4,3.1,4.2,5.8,4.2c3,0,5.3-2.1,5.9-4.9l107.4,10.5c0,3.4,2.8,6.1,6.2,6.1
		c3.2,0,5.8-2.5,6.1-5.6l291.3-6.3c0.4,3,2.9,5.4,6,5.4c3.4,0,6.2-2.8,6.2-6.2c0-1.3-0.5-2.4-1.2-3.4l332.1-286.6
		c1.1,1,2.6,1.7,4.2,1.7c3.4,0,6.2-2.8,6.2-6.2C2682.9,481.4,2680.2,478.6,2676.8,478.6z M1563.5,845.2c-1.9,0.8-3.3,2.5-3.7,4.6
		l-418.3-35.5c0-0.6-0.2-1.1-0.3-1.6l366.2-154.3c1.1,1.9,3,3.2,5.3,3.2c0.3,0,0.6-0.1,1-0.2l26.2,96.5L1563.5,845.2z M1912.7,767.9
		c-2.6,0-4.8,1.6-5.7,3.8l-388.4-115.1c0.1-0.4,0.2-0.7,0.2-1.1c0-0.7-0.2-1.4-0.4-2.1L1972,432c0.8,1.2,1.9,2.2,3.4,2.6L1925,704.5
		l-11.8,63.5C1913,768,1912.9,767.9,1912.7,767.9z M1971.4,430.8l-74,36.1l-379.6,185.3c-1.1-1.7-2.9-2.9-5.1-2.9
		c-1.7,0-3.3,0.7-4.4,1.9l-0.4-0.3l-162.6-126.5c0.6-0.9,1-2,1-3.2c0-0.1,0-0.2,0-0.2l625.1-90.8
		C1971.4,430.4,1971.4,430.7,1971.4,430.8z M1239,232.4c0.8,0.4,1.6,0.6,2.5,0.6c0.5,0,0.9-0.2,1.3-0.3l94.7,283
		c-2.1,1-3.6,3.1-3.6,5.6c0,0.3,0.1,0.6,0.2,0.9l-79.3,20.6l-229.4,59.7c-0.4-1.1-1.2-2-2.1-2.7l57.4-97.7L1239,232.4z
		 M1017.7,610.4L956,865.8c-0.3,0-0.5-0.2-0.8-0.2c-2.3,0-4.3,1.3-5.3,3.2L426.4,650.7c0.1-0.5,0.3-1,0.3-1.5l587-43.4
		C1014.2,607.9,1015.6,609.7,1017.7,610.4z M414.6,649.8L-7.8,760.2c-0.9-2.3-3.1-4-5.7-4c-1,0-2,0.3-2.8,0.8l-27.7-41.6L-132.9,582
		c1-0.8,1.7-2,2-3.3l545.4,70.1c0,0,0,0.1,0,0.1C414.4,649.3,414.6,649.5,414.6,649.8z M-42.8,221.6l-244.9,394.5
		c-0.8-0.4-1.7-0.7-2.7-0.7c-2.1,0-3.8,1.1-4.9,2.6L-499,502.9c0.3-0.8,0.5-1.6,0.5-2.4c0-0.9-0.2-1.8-0.6-2.6l117.5-71.6
		l337.7-205.7C-43.5,220.9-43.2,221.3-42.8,221.6z M-539.2,761.7l34.4-255.1c0.1,0,0.1,0,0.2,0c2.1,0,3.8-1.1,4.9-2.6L-296,619.1
		c-0.3,0.8-0.5,1.6-0.5,2.4c0,0.9,0.2,1.7,0.6,2.5l-184.4,107.5l-55.4,32.3C-536.6,762.8-537.8,762-539.2,761.7z M-130.9,575.8
		l551-200.6c0.9,1.8,2.6,3.1,4.7,3.3l-4.8,264.3c-2.6,0.2-4.7,2.1-5.3,4.6L34.3,598.6l-165-21.2c0,0,0-0.1,0-0.1
		C-130.6,576.8-130.8,576.3-130.9,575.8z M1013.6,604.5l-587,43.4c-0.5-2.6-2.5-4.6-5.2-4.9l4.8-264.3c2.1-0.2,3.9-1.4,4.9-3.2
		l582.9,227.7C1013.8,603.5,1013.6,604,1013.6,604.5z M-284.4,620.6l141.9-40.9c0.9,2.3,3.1,3.8,5.7,3.8c1,0,2-0.3,2.8-0.8
		l116.5,175c-0.5,0.4-0.8,0.9-1.2,1.4l-266-135.2c0.3-0.7,0.4-1.4,0.4-2.2C-284.2,621.2-284.3,620.9-284.4,620.6z M-510.6,499.4
		c-0.1,0.4-0.2,0.7-0.2,1c0,2.9,2,5.2,4.7,5.9l-34.4,255.1c-0.1,0-0.1,0-0.2,0c-1,0-1.9,0.3-2.7,0.7L-753,432.2
		c0.8-0.7,1.5-1.4,1.9-2.4l46.5,13.5L-510.6,499.4z M1023.2,609.6c1.6-1.1,2.7-2.9,2.7-5c0-0.3-0.1-0.6-0.2-0.9l308.7-80.3
		c0.4,1,1,1.8,1.7,2.4l-197.8,283.2c-0.9-0.5-1.8-0.8-2.9-0.8c-0.8,0-1.7,0.2-2.4,0.5l-65.2-118.3L1023.2,609.6z M1140.7,811.5
		c-0.3-0.6-0.8-1.2-1.3-1.7l136.5-195.4l61.4-87.9c0.9,0.5,1.8,0.8,2.9,0.8c1.7,0,3.3-0.7,4.4-1.9l163,126.8c-0.6,0.9-1,2-1,3.2
		c0,0.6,0.2,1.2,0.4,1.7l-187.3,78.9L1140.7,811.5z M-135.8,571.3c-0.3-0.1-0.6-0.2-0.9-0.2c-3.4,0-6.2,2.8-6.2,6.2
		c0,0.4,0.1,0.7,0.2,1l-141.9,40.9c-0.4-1-1.1-1.8-2-2.5l244.9-394.5c0.1,0.1,0.3,0.1,0.4,0.2l-58.3,215L-135.8,571.3z M-44.6,219.4
		l-455.2,277.3c-1.1-1.5-2.8-2.5-4.8-2.5c-0.1,0-0.1,0-0.2,0l-40-282.5c2.4-0.6,4.2-2.6,4.5-5.1l495.2,10.6
		C-45,218.1-44.9,218.8-44.6,219.4z M-546.3,212.1c0.1,0,0.1,0,0.2,0l40,282.5c-1.9,0.5-3.5,1.8-4.2,3.5l-240.5-69.6
		c0.1-0.4,0.2-0.7,0.2-1c0-1.5-0.6-2.9-1.5-3.9L-550,210.8C-549,211.6-547.7,212.1-546.3,212.1z M-535,765l239.8-139.8
		c1.1,1.5,2.8,2.6,4.9,2.6c2.2,0,4-1.2,5.1-2.9l266,135.2c-0.2,0.5-0.3,1-0.3,1.6l-515,5.1C-534.7,766.2-534.8,765.6-535,765z
		 M565.8,895.9c-0.9,0-1.7,0.2-2.5,0.5L424.2,653.9c0.7-0.5,1.3-1.2,1.8-2L949.4,870c-0.1,0.5-0.3,1-0.3,1.5L571.7,901
		C571.2,898.1,568.8,895.9,565.8,895.9z M1914.4,768.2l62.2-333.4c0.2,0,0.3,0.1,0.5,0.1c0.1,0,0.2-0.1,0.3-0.1l53.1,345.1
		c-2.2,0.6-3.9,2.3-4.4,4.6L1918.9,774C1918.8,771.2,1917,769,1914.4,768.2z M2526.9,488.2l-188.6,285.7c-0.3-0.1-0.6-0.3-0.9-0.4
		l59.1-275.7l2.9-13.4c0.2,0,0.4,0.1,0.6,0.1c3.1,0,5.5-2.3,6-5.3l118.8,4.7C2524.8,485.6,2525.6,487.1,2526.9,488.2z M2037.2,782.4
		l358.5-299.7c0.7,0.6,1.5,1.1,2.4,1.4l-61.9,289.2c-0.2,0-0.4-0.1-0.6-0.1c-3.2,0-5.8,2.5-6.1,5.6l-291.3,6.3
		C2038,784,2037.7,783.2,2037.2,782.4z M2339.4,774.6L2528,488.9c0.8,0.4,1.8,0.8,2.8,0.8c3.2,0,5.7-2.4,6-5.5l133.9,1.2
		c0.1,1.1,0.5,2,1.1,2.8l-332.1,286.6C2339.6,774.7,2339.5,774.7,2339.4,774.6z M2393.8,478.2
		C2393.8,478.2,2393.8,478.2,2393.8,478.2c0,1.3,0.5,2.4,1.1,3.4l-358.5,299.7c-1.1-1.1-2.6-1.7-4.3-1.7c-0.1,0-0.2,0.1-0.3,0.1
		l-53.1-345.1c2.2-0.6,3.8-2.3,4.3-4.5L2393.8,478.2z M1971.2,427.8c-0.1,0.3-0.2,0.6-0.2,1c0,0.1,0,0.2,0,0.2L1346,519.8
		c-0.7-2.7-3-4.7-5.9-4.7c-0.5,0-0.9,0.2-1.3,0.3l-94.7-283c1.4-0.7,2.6-1.9,3.2-3.3L1971.2,427.8z M1235.4,226.7
		C1235.4,226.7,1235.4,226.8,1235.4,226.7c0,2.1,1,3.8,2.5,5l-215.7,367.4c-0.8-0.4-1.6-0.6-2.5-0.6c-0.6,0-1.2,0.2-1.8,0.4
		L841.3,183.2c1.5-0.8,2.5-2.2,2.9-3.9L1235.4,226.7z M833.1,181.1c1.1,1.8,2.9,3,5.2,3c0.6,0,1.2-0.2,1.8-0.4l176.7,415.6
		c-1,0.6-1.9,1.4-2.4,2.5L431.4,374.2c0.1-0.5,0.3-1,0.3-1.6c0-0.7-0.2-1.4-0.4-2L833.1,181.1z M419.7,371.3
		c-0.1,0.4-0.3,0.8-0.3,1.3c0,0.5,0.2,1,0.3,1.4l-551,200.6c-0.7-1.4-1.8-2.5-3.3-3l59.7-220.2L-40,222.8c0.3,0.1,0.6,0.2,0.9,0.2
		c2.5,0,4.6-1.5,5.6-3.6L419.7,371.3z M-710.2,864.3c-1.1-1.5-2.8-2.6-4.8-2.6l-40.6-428.3c0.5-0.1,1-0.2,1.5-0.4l209.6,329.9
		c-1.4,1.1-2.4,2.8-2.4,4.7c0,0.9,0.2,1.7,0.5,2.5L-710.2,864.3z M-7.6,763.1c0-0.3,0.2-0.5,0.2-0.8c0-0.3-0.1-0.6-0.2-0.9
		l422.5-110.3c0.9,2.3,3.1,4,5.7,4c0.9,0,1.7-0.2,2.5-0.5l139.1,242.6c-1,0.7-1.8,1.7-2.2,2.8L-7.6,763.1z M960.9,869.3
		c-0.7-1.5-2-2.7-3.6-3.3l61.6-255.4c0.3,0,0.5,0.2,0.8,0.2c0.8,0,1.7-0.2,2.4-0.5l109.8,199.1c-1.6,1.1-2.7,2.9-2.7,5
		c0,0.4,0.2,0.8,0.2,1.2L960.9,869.3z M1571.5,849c-0.8-2.4-3.1-4.2-5.8-4.2c-0.3,0-0.6,0.1-0.9,0.2l-11-40.5l-38.9-143.3
		c1.6-0.6,2.8-1.8,3.5-3.4L1906.8,773c-0.1,0.4-0.2,0.7-0.2,1.1c0,0.2,0.1,0.4,0.1,0.7L1571.5,849z"/>
	<path class="st2" d="M2676.8,478.6c-3.2,0-5.7,2.4-6,5.5l-133.9-1.2c-0.3-3.1-2.9-5.6-6-5.6c-3.1,0-5.5,2.3-6,5.3l-118.8-4.7
		c-0.2-3.2-2.8-5.8-6.1-5.8c-2.9,0-5.3,2.1-5.9,4.8l-410.7-48.1c0,0,0,0,0-0.1c0-3.4-2.8-6.2-6.2-6.2c-2.6,0-4.8,1.6-5.7,3.9
		l-723.9-198.8c0.1-0.3,0.2-0.6,0.2-1c0-3.4-2.8-6.2-6.2-6.2c-2.9,0-5.3,2.1-5.9,4.8L844.5,178c0,0,0-0.1,0-0.1
		c0-3.4-2.8-6.2-6.2-6.2c-3.4,0-6.2,2.8-6.2,6.2c0,0.7,0.2,1.4,0.4,2L430.8,369.4c-1.1-1.8-2.9-3-5.2-3c-2.5,0-4.6,1.5-5.6,3.6
		L-33.1,218.1c0.1-0.4,0.3-0.8,0.3-1.3c0-3.4-2.8-6.2-6.2-6.2c-3.1,0-5.6,2.4-6,5.4l-495.2-10.6c-0.3-3.1-2.8-5.6-6.1-5.6
		c-3.4,0-6.2,2.8-6.2,6.2c0,1.5,0.6,2.9,1.5,3.9l-202.1,212.8c-1-0.8-2.3-1.3-3.7-1.3c-3.4,0-6.2,2.8-6.2,6.2c0,3.4,2.7,6.1,6.1,6.2
		l40.6,428.3c-2.8,0.6-5,2.9-5,5.9c0,3.4,2.8,6.2,6.2,6.2s6.2-2.8,6.2-6.2c0-0.9-0.2-1.7-0.5-2.5l163.9-94.3
		c1.1,1.5,2.8,2.6,4.9,2.6c3.2,0,5.7-2.5,6-5.6l515-5.1c0.4,3.1,2.9,5.5,6,5.5c2.7,0,4.9-1.7,5.7-4.1l567.6,136.9
		c0,0.3-0.2,0.5-0.2,0.8c0,3.4,2.8,6.2,6.2,6.2c3.3,0,6-2.7,6.1-6l377.4-29.4c0.5,2.9,2.9,5.1,5.9,5.1c3.4,0,6.2-2.8,6.2-6.2
		c0-0.4-0.2-0.8-0.2-1.2l168.6-53.7c1,2.2,3.1,3.7,5.6,3.7c3,0,5.4-2.2,5.9-5l418.3,35.5c0.1,3.3,2.8,6,6.1,6c3.4,0,6.2-2.8,6.2-6.2
		c0-0.2-0.1-0.4-0.1-0.7l335.2-74.3c0.8,2.4,3.1,4.2,5.8,4.2c3,0,5.3-2.1,5.9-4.9l107.4,10.5c0,3.4,2.8,6.1,6.2,6.1
		c3.2,0,5.8-2.5,6.1-5.6l291.3-6.3c0.4,3,2.9,5.4,6,5.4c3.4,0,6.2-2.8,6.2-6.2c0-1.3-0.5-2.4-1.2-3.4l332.1-286.6
		c1.1,1,2.6,1.7,4.2,1.7c3.4,0,6.2-2.8,6.2-6.2C2682.9,481.4,2680.2,478.6,2676.8,478.6z M1563.5,845.2c-1.9,0.8-3.3,2.5-3.7,4.6
		l-418.3-35.5c0-0.6-0.2-1.1-0.3-1.6l366.2-154.3c1.1,1.9,3,3.2,5.3,3.2c0.3,0,0.6-0.1,1-0.2l26.2,96.5L1563.5,845.2z M1912.7,767.9
		c-2.6,0-4.8,1.6-5.7,3.8l-388.4-115.1c0.1-0.4,0.2-0.7,0.2-1.1c0-0.7-0.2-1.4-0.4-2.1L1972,432c0.8,1.2,1.9,2.2,3.4,2.6L1925,704.5
		l-11.8,63.5C1913,768,1912.9,767.9,1912.7,767.9z M1971.4,430.8l-74,36.1l-379.6,185.3c-1.1-1.7-2.9-2.9-5.1-2.9
		c-1.7,0-3.3,0.7-4.4,1.9l-0.4-0.3l-162.6-126.5c0.6-0.9,1-2,1-3.2c0-0.1,0-0.2,0-0.2l625.1-90.8
		C1971.4,430.4,1971.4,430.7,1971.4,430.8z M1239,232.4c0.8,0.4,1.6,0.6,2.5,0.6c0.5,0,0.9-0.2,1.3-0.3l94.7,283
		c-2.1,1-3.6,3.1-3.6,5.6c0,0.3,0.1,0.6,0.2,0.9l-79.3,20.6l-229.4,59.7c-0.4-1.1-1.2-2-2.1-2.7l57.4-97.7L1239,232.4z
		 M1017.7,610.4L956,865.8c-0.3,0-0.5-0.2-0.8-0.2c-2.3,0-4.3,1.3-5.3,3.2L426.4,650.7c0.1-0.5,0.3-1,0.3-1.5l587-43.4
		C1014.2,607.9,1015.6,609.7,1017.7,610.4z M414.6,649.8L-7.8,760.2c-0.9-2.3-3.1-4-5.7-4c-1,0-2,0.3-2.8,0.8l-27.7-41.6L-132.9,582
		c1-0.8,1.7-2,2-3.3l545.4,70.1c0,0,0,0.1,0,0.1C414.4,649.3,414.6,649.5,414.6,649.8z M-42.8,221.6l-244.9,394.5
		c-0.8-0.4-1.7-0.7-2.7-0.7c-2.1,0-3.8,1.1-4.9,2.6L-499,502.9c0.3-0.8,0.5-1.6,0.5-2.4c0-0.9-0.2-1.8-0.6-2.6l117.5-71.6
		l337.7-205.7C-43.5,220.9-43.2,221.3-42.8,221.6z M-539.2,761.7l34.4-255.1c0.1,0,0.1,0,0.2,0c2.1,0,3.8-1.1,4.9-2.6L-296,619.1
		c-0.3,0.8-0.5,1.6-0.5,2.4c0,0.9,0.2,1.7,0.6,2.5l-184.4,107.5l-55.4,32.3C-536.6,762.8-537.8,762-539.2,761.7z M-130.9,575.8
		l551-200.6c0.9,1.8,2.6,3.1,4.7,3.3l-4.8,264.3c-2.6,0.2-4.7,2.1-5.3,4.6L34.3,598.6l-165-21.2c0,0,0-0.1,0-0.1
		C-130.6,576.8-130.8,576.3-130.9,575.8z M1013.6,604.5l-587,43.4c-0.5-2.6-2.5-4.6-5.2-4.9l4.8-264.3c2.1-0.2,3.9-1.4,4.9-3.2
		l582.9,227.7C1013.8,603.5,1013.6,604,1013.6,604.5z M-284.4,620.6l141.9-40.9c0.9,2.3,3.1,3.8,5.7,3.8c1,0,2-0.3,2.8-0.8
		l116.5,175c-0.5,0.4-0.8,0.9-1.2,1.4l-266-135.2c0.3-0.7,0.4-1.4,0.4-2.2C-284.2,621.2-284.3,620.9-284.4,620.6z M-510.6,499.4
		c-0.1,0.4-0.2,0.7-0.2,1c0,2.9,2,5.2,4.7,5.9l-34.4,255.1c-0.1,0-0.1,0-0.2,0c-1,0-1.9,0.3-2.7,0.7L-753,432.2
		c0.8-0.7,1.5-1.4,1.9-2.4l46.5,13.5L-510.6,499.4z M1023.2,609.6c1.6-1.1,2.7-2.9,2.7-5c0-0.3-0.1-0.6-0.2-0.9l308.7-80.3
		c0.4,1,1,1.8,1.7,2.4l-197.8,283.2c-0.9-0.5-1.8-0.8-2.9-0.8c-0.8,0-1.7,0.2-2.4,0.5l-65.2-118.3L1023.2,609.6z M1140.7,811.5
		c-0.3-0.6-0.8-1.2-1.3-1.7l136.5-195.4l61.4-87.9c0.9,0.5,1.8,0.8,2.9,0.8c1.7,0,3.3-0.7,4.4-1.9l163,126.8c-0.6,0.9-1,2-1,3.2
		c0,0.6,0.2,1.2,0.4,1.7l-187.3,78.9L1140.7,811.5z M-135.8,571.3c-0.3-0.1-0.6-0.2-0.9-0.2c-3.4,0-6.2,2.8-6.2,6.2
		c0,0.4,0.1,0.7,0.2,1l-141.9,40.9c-0.4-1-1.1-1.8-2-2.5l244.9-394.5c0.1,0.1,0.3,0.1,0.4,0.2l-58.3,215L-135.8,571.3z M-44.6,219.4
		l-455.2,277.3c-1.1-1.5-2.8-2.5-4.8-2.5c-0.1,0-0.1,0-0.2,0l-40-282.5c2.4-0.6,4.2-2.6,4.5-5.1l495.2,10.6
		C-45,218.1-44.9,218.8-44.6,219.4z M-546.3,212.1c0.1,0,0.1,0,0.2,0l40,282.5c-1.9,0.5-3.5,1.8-4.2,3.5l-240.5-69.6
		c0.1-0.4,0.2-0.7,0.2-1c0-1.5-0.6-2.9-1.5-3.9L-550,210.8C-549,211.6-547.7,212.1-546.3,212.1z M-535,765l239.8-139.8
		c1.1,1.5,2.8,2.6,4.9,2.6c2.2,0,4-1.2,5.1-2.9l266,135.2c-0.2,0.5-0.3,1-0.3,1.6l-515,5.1C-534.7,766.2-534.8,765.6-535,765z
		 M565.8,895.9c-0.9,0-1.7,0.2-2.5,0.5L424.2,653.9c0.7-0.5,1.3-1.2,1.8-2L949.4,870c-0.1,0.5-0.3,1-0.3,1.5L571.7,901
		C571.2,898.1,568.8,895.9,565.8,895.9z M1914.4,768.2l62.2-333.4c0.2,0,0.3,0.1,0.5,0.1c0.1,0,0.2-0.1,0.3-0.1l53.1,345.1
		c-2.2,0.6-3.9,2.3-4.4,4.6L1918.9,774C1918.8,771.2,1917,769,1914.4,768.2z M2526.9,488.2l-188.6,285.7c-0.3-0.1-0.6-0.3-0.9-0.4
		l59.1-275.7l2.9-13.4c0.2,0,0.4,0.1,0.6,0.1c3.1,0,5.5-2.3,6-5.3l118.8,4.7C2524.8,485.6,2525.6,487.1,2526.9,488.2z M2037.2,782.4
		l358.5-299.7c0.7,0.6,1.5,1.1,2.4,1.4l-61.9,289.2c-0.2,0-0.4-0.1-0.6-0.1c-3.2,0-5.8,2.5-6.1,5.6l-291.3,6.3
		C2038,784,2037.7,783.2,2037.2,782.4z M2339.4,774.6L2528,488.9c0.8,0.4,1.8,0.8,2.8,0.8c3.2,0,5.7-2.4,6-5.5l133.9,1.2
		c0.1,1.1,0.5,2,1.1,2.8l-332.1,286.6C2339.6,774.7,2339.5,774.7,2339.4,774.6z M2393.8,478.2
		C2393.8,478.2,2393.8,478.2,2393.8,478.2c0,1.3,0.5,2.4,1.1,3.4l-358.5,299.7c-1.1-1.1-2.6-1.7-4.3-1.7c-0.1,0-0.2,0.1-0.3,0.1
		l-53.1-345.1c2.2-0.6,3.8-2.3,4.3-4.5L2393.8,478.2z M1971.2,427.8c-0.1,0.3-0.2,0.6-0.2,1c0,0.1,0,0.2,0,0.2L1346,519.8
		c-0.7-2.7-3-4.7-5.9-4.7c-0.5,0-0.9,0.2-1.3,0.3l-94.7-283c1.4-0.7,2.6-1.9,3.2-3.3L1971.2,427.8z M1235.4,226.7
		C1235.4,226.7,1235.4,226.8,1235.4,226.7c0,2.1,1,3.8,2.5,5l-215.7,367.4c-0.8-0.4-1.6-0.6-2.5-0.6c-0.6,0-1.2,0.2-1.8,0.4
		L841.3,183.2c1.5-0.8,2.5-2.2,2.9-3.9L1235.4,226.7z M833.1,181.1c1.1,1.8,2.9,3,5.2,3c0.6,0,1.2-0.2,1.8-0.4l176.7,415.6
		c-1,0.6-1.9,1.4-2.4,2.5L431.4,374.2c0.1-0.5,0.3-1,0.3-1.6c0-0.7-0.2-1.4-0.4-2L833.1,181.1z M419.7,371.3
		c-0.1,0.4-0.3,0.8-0.3,1.3c0,0.5,0.2,1,0.3,1.4l-551,200.6c-0.7-1.4-1.8-2.5-3.3-3l59.7-220.2L-40,222.8c0.3,0.1,0.6,0.2,0.9,0.2
		c2.5,0,4.6-1.5,5.6-3.6L419.7,371.3z M-710.2,864.3c-1.1-1.5-2.8-2.6-4.8-2.6l-40.6-428.3c0.5-0.1,1-0.2,1.5-0.4l209.6,329.9
		c-1.4,1.1-2.4,2.8-2.4,4.7c0,0.9,0.2,1.7,0.5,2.5L-710.2,864.3z M-7.6,763.1c0-0.3,0.2-0.5,0.2-0.8c0-0.3-0.1-0.6-0.2-0.9
		l422.5-110.3c0.9,2.3,3.1,4,5.7,4c0.9,0,1.7-0.2,2.5-0.5l139.1,242.6c-1,0.7-1.8,1.7-2.2,2.8L-7.6,763.1z M960.9,869.3
		c-0.7-1.5-2-2.7-3.6-3.3l61.6-255.4c0.3,0,0.5,0.2,0.8,0.2c0.8,0,1.7-0.2,2.4-0.5l109.8,199.1c-1.6,1.1-2.7,2.9-2.7,5
		c0,0.4,0.2,0.8,0.2,1.2L960.9,869.3z M1571.5,849c-0.8-2.4-3.1-4.2-5.8-4.2c-0.3,0-0.6,0.1-0.9,0.2l-11-40.5l-38.9-143.3
		c1.6-0.6,2.8-1.8,3.5-3.4L1906.8,773c-0.1,0.4-0.2,0.7-0.2,1.1c0,0.2,0.1,0.4,0.1,0.7L1571.5,849z"/>
</g>
</svg>
