<?xml version="1.0" encoding="utf-8"?>
<!-- Generator: Adobe Illustrator 22.0.0, SVG Export Plug-In . SVG Version: 6.00 Build 0)  -->
<svg version="1.1" id="Layer_1" xmlns="http://www.w3.org/2000/svg" xmlns:xlink="http://www.w3.org/1999/xlink" x="0px" y="0px"
	 viewBox="0 0 99.7 143.6" style="enable-background:new 0 0 99.7 143.6;" xml:space="preserve">
<style type="text/css">
	.st0{fill:none;stroke:#000000;stroke-width:0.25;stroke-miterlimit:10;}
</style>
<title>logo-img</title>
<path class="st0" d="M87.6,57.5c0.5-0.5,1.1-0.9,1.7-1.2c1.4-0.7,2.3-0.3,3,1.2c2.6,5.3,2.1,11.6-1.2,16.5
	c-5.3,8.4-12.5,14.3-22.3,16.6c-6.3,1.4-12.5,0.5-18.6-1.4C38,85.5,26.8,79.4,17.2,71.2C10.9,65.8,6,59.4,4.9,50.7
	C4.2,44.9,5.5,39,8.7,34.1c6.8-11.6,18.4-19.7,31.7-22c7.1-1.4,14,0.2,20.6,2.6c10,3.6,18.4,9.7,25.9,17.1c0.8,0.8,1.5,1.5,2.3,2.3
	c0.1,0.1,0.2,0.1,0.6,0.2c-4.7-6.2-10.1-11.8-16.1-16.8L74,17c3.2,2.3,6.6,4.4,9.6,7c4.6,3.8,8.4,8.4,11.1,13.8
	c0.3,0.6,0.3,1.3,0.1,1.9c-2.4,2.7-4.9,5.2-7.1,7.6c-2.8-4-5.3-8-8.2-11.7c-5-6.2-11.8-9.6-19.6-11.2c-10.4-2.1-20.6-1.8-30.5,2.4
	c-6.7,2.8-12,7.2-14.1,14.6c-2,7,0.3,12.7,6.5,16.5c3.1,2,6.7,3.3,10.3,3.8c6.9,0.9,13.3,4.2,18,9.3c3.9,4.2,7.2,8.8,10.7,13.3
	c0.5,0.8,1.1,1.5,1.7,2.2c-3.5-9.5-8.3-18-18-22.5c6.3,0.2,12.6,0.6,18.9,0.6c3.2-0.1,6.4-0.5,9.6-1c0.5-0.1,0.9-0.2,1.4-0.4
	c3.9-1.3,4.5-2.7,2.9-6.4l-1.8-4.1c-5.5,1-10.7,1.9-15.9,2.9c-1.3,0.2-2.1,0-2.6-1.4c-0.8-2.5-1.8-4.9-2.8-7.7
	c8.2,1.5,15.3-1.1,23-3.8c2.9,4.5,5.8,9,8.7,13.5c0.4,0.6,0.5,1.6,1.6,1.2c-10.6,6.1-16,16-20.2,26.9c6.3-9.7,12-19.9,21.7-27.1
	L87.6,57.5z M52.6,82.2c-3.9-4.8-7.8-9.1-13.5-11.3c-1.3-0.4-2.6-0.5-3.9-0.3c-0.6,0.2-1.1,0.8-1.2,1.4c-0.2,2.7,2.6,7.1,5.1,8.3
	C43.3,82.3,47.8,82,52.6,82.2z M85.2,63.9c-4.6,4.7-8.1,10.2-12.1,15.8c0.8-0.1,1.1-0.2,1.3-0.2c4.7-1.3,8.3-4.1,11.7-7.5
	C88.5,69.5,88.3,66.3,85.2,63.9z"/>
<path class="st0" d="M5.3,69c0.3,1,0.6,1.6,0.8,2.2c3.5,11.4,7.7,22.5,13.4,32.9c3.7,6.8,8,13.1,13.8,18.3c3.1,2.9,6.9,4.9,11,5.9
	c2.6,0.7,5.4,0,7.4-1.8c3.6-3.2,5.2-7.4,5.8-12.2c-1.9-0.1-3.5-0.1-5.2-0.3c-8.6-1.2-15.7-5.6-22.3-10.9c-2.6-2-4.3-4.8-4.9-8
	c-1-5.2-2.1-10.4-3.2-15.6l0.4-0.2c2.5,2.2,4.9,4.5,7.5,6.7c6.5,5.5,13.4,10.1,21.5,12.9c14.5,5.1,28.6,0.7,37.6-11.7
	c0.5-0.8,1.2-1.5,2-2.1c0,2.2,0.4,4.4-0.1,6.4c-1.3,5.3-2.8,10.5-4.6,15.6c-1.2,3.6-4.3,5.9-7.7,7.1c-3.8,1.4-5.7,3.6-6.8,7.5
	c-1.8,6.2-5.3,11.6-11.1,15c-2.5,1.3-5.1,2.4-7.8,3.1c7.6-2.8,12.7-8.2,16.6-15.2c-1.7,1.5-3.3,3-5.1,4.4c-3.6,3-8,4.9-12.7,5.7
	c-6.5,0.9-12.3-1.1-17.7-4.6c-7-4.6-12.4-10.8-17.2-17.5c-2.3-3.3-4.4-6.9-6.6-10.3c-0.2-0.4-0.5-0.7-0.9-0.8
	c7.8,14.7,15.4,29.5,31.1,37.4c-5.6-1.5-10.7-4.4-14.9-8.3c-7.1-6.4-12.7-14.3-16.4-23.2C7.8,104,7.4,100,7,96.4
	C6.3,87.6,5.8,78.8,5.2,70C5.2,69.8,5.2,69.6,5.3,69z"/>
<path class="st0" d="M52.6,82.2c-4.8-0.2-9.3,0.1-13.5-1.9c-2.5-1.2-5.3-5.6-5.1-8.3c0.1-0.6,0.6-1.2,1.2-1.4
	c1.3-0.2,2.6-0.1,3.9,0.3C44.8,73.1,48.7,77.4,52.6,82.2z"/>
<path class="st0" d="M85.2,63.9c3.1,2.3,3.3,5.6,0.9,8.1c-3.3,3.3-7,6.2-11.7,7.5c-0.3,0.1-0.6,0.1-1.3,0.2
	C77.1,74.1,80.6,68.6,85.2,63.9z"/>
<path class="st0" d="M87.6,57.5l1.5-0.3c-9.7,7.2-15.4,17.4-21.7,27.1C71.6,73.5,77,63.6,87.6,57.5L87.6,57.5z"/>
</svg>
