<?xml version="1.0" encoding="utf-8"?>
<!-- Generator: Adobe Illustrator 22.0.0, SVG Export Plug-In . SVG Version: 6.00 Build 0)  -->
<svg version="1.1" id="Layer_1" xmlns="http://www.w3.org/2000/svg" xmlns:xlink="http://www.w3.org/1999/xlink" x="0px" y="0px"
	 viewBox="0 0 99.7 143.6" style="enable-background:new 0 0 99.7 143.6;" xml:space="preserve">
<title>logo-img</title>
<path d="M94.8,37.7c-2.7-5.4-6.5-10-11.1-13.8c-2.1-1.8-4.3-3.3-6.5-4.8c-1-0.7-2.1-1.4-3.1-2.2L74,16.8l-0.5,0.7l0.1,0.1
	C79.5,22.4,84.8,28,89.4,34c-0.1,0-0.1,0-0.2-0.1c-0.3-0.3-0.7-0.7-1-1c-0.4-0.4-0.8-0.9-1.3-1.3C78.7,23.4,70.2,17.8,61,14.5
	c-8.2-3-14.6-3.8-20.7-2.6C27,14.3,15.4,22.4,8.6,34c-3.2,5-4.5,10.9-3.8,16.7c0.6,4.9,2.4,9.3,5.5,13.4c-0.1,0.4-2.2,2.5-3.4,3.7
	c-1.7,1.7-1.9,1.9-1.9,2.1c0.5,10.1,1.1,18.5,1.9,26.4c0.3,3.3,0.7,7.5,2.2,11c3.6,8.8,9.3,16.9,16.4,23.2c4.2,4,9.4,6.8,15,8.3
	l1.2,0.3l-1.1-0.5c-15.2-7.6-22.9-22.1-30.4-36.1l-0.5-0.9c0.2,0.1,0.3,0.3,0.4,0.5c0.7,1.1,1.4,2.2,2.1,3.4
	c1.4,2.3,2.9,4.7,4.5,6.9c5.8,8.1,11.1,13.5,17.2,17.5c6,3.9,11.8,5.4,17.8,4.6c4.7-0.7,9.1-2.7,12.7-5.7c1.2-1,2.4-2,3.6-3
	c0.3-0.3,0.7-0.6,1-0.9c-4.2,7.2-9.5,12-16.1,14.5l0.1,0.2c2.7-0.7,5.3-1.8,7.8-3.1c5.4-3.2,9.1-8.3,11.1-15.1
	c1.2-3.9,3.1-6.1,6.7-7.4c2.8-1,6.4-3.1,7.8-7.2c1.7-4.9,3.3-10.2,4.6-15.6c0.3-1.4,0.3-2.9,0.2-4.4c0-0.7-0.1-1.4-0.1-2v-0.2
	l-0.2,0.1c-0.8,0.6-1.5,1.3-2,2.1c-9,12.4-23,16.8-37.5,11.7c-7.1-2.5-14-6.6-21.4-12.9c-1.3-1.1-2.3-3.1-3.3-5
	c-0.8-1.5-1.5-2.9-2.4-4c7.9,5.5,16.6,9.7,25.9,12.5c4.4,1.4,8.4,2.1,12.2,2.1c2.2,0,4.4-0.2,6.5-0.7c9.3-2.1,16.8-7.7,22.4-16.6
	c3.3-4.9,3.8-11.3,1.2-16.6c-0.4-0.8-0.8-1.3-1.4-1.5c-0.5-0.2-1.1-0.1-1.8,0.3c-0.5,0.3-1.1,0.7-1.6,1.1l0,0
	c-0.8,0.3-1-0.1-1.2-0.7c-0.1-0.2-0.1-0.3-0.2-0.5c-3-4.6-6-9.3-8.7-13.5l-0.1-0.1l-0.7,0.2c-7.4,2.6-14.4,5.1-22.4,3.6l-0.2,0
	l0.1,0.2c0.3,0.9,0.6,1.7,1,2.5c0.7,1.8,1.3,3.5,1.9,5.2c0.4,1.3,1.2,1.8,2.7,1.5c3.2-0.6,6.3-1.2,9.7-1.8c2-0.4,4-0.7,6.1-1.1
	l1.7,4c0.8,1.9,1,3.1,0.6,4c-0.4,0.9-1.4,1.6-3.4,2.2c-0.4,0.2-0.9,0.3-1.4,0.4c-3.2,0.5-6.4,0.8-9.6,1c-4.4,0-8.9-0.2-13.3-0.4
	c-1.9-0.1-3.7-0.2-5.6-0.2l-0.6,0l0.6,0.3c5.6,2.6,12.1,7.2,17.7,21.7c-0.4-0.5-0.9-1.1-1.2-1.7c-1-1.3-2.1-2.6-3-3.9
	c-2.4-3.1-4.9-6.4-7.7-9.3c-4.7-5.1-11.2-8.4-18.1-9.4c-3.7-0.6-7.1-1.9-10.3-3.8c-6.2-3.8-8.4-9.4-6.4-16.3
	c1.9-6.6,6.5-11.3,14-14.5c9.2-3.9,19.1-4.6,30.4-2.4c8.5,1.7,14.9,5.4,19.5,11.1c2,2.5,3.8,5.2,5.7,8c0.8,1.2,1.7,2.5,2.5,3.7
	l0.1,0.1l0.1-0.1c0.4-0.5,0.9-0.9,1.3-1.4c1.9-2,3.9-4.1,5.8-6.2l0,0C95.2,39,95.2,38.3,94.8,37.7z M17.1,71.3
	c1.1,0.9,2.1,1.7,3.2,2.6c0.5,2.3,1.3,5.7,2.1,9.3c1,4.4,2.1,8.9,2.6,11.7c0.6,3.2,2.4,6.1,5,8.1c5.8,4.7,13.1,9.7,22.3,11
	c1.1,0.2,2.2,0.2,3.4,0.3c0.5,0,1,0,1.6,0.1c-0.8,5.5-2.6,9.2-5.8,12c-2,1.8-4.7,2.5-7.3,1.8c-4.1-1-7.9-3-10.9-5.8
	c-5.1-4.5-9.5-10.2-13.8-18.2c-4.8-8.7-7.5-17.8-10.4-27.4C8.6,74.8,8,73,7.4,71.1c-0.1-0.2,0.7-1.5,1.3-2.6c1-1.8,1.7-3.2,1.9-3.9
	C12.3,66.9,14.5,69.1,17.1,71.3z M23.3,76.1c1.2,1.1,2.2,3,3.2,4.8c1,1.9,2.1,3.9,3.4,5c7.5,6.3,14.3,10.4,21.5,13
	C65.9,104,80,99.6,89.1,87.1c0.5-0.7,1.1-1.4,1.8-1.9c0,0.6,0,1.2,0.1,1.8c0.1,1.5,0.2,3-0.2,4.3c-1.3,5.4-2.9,10.7-4.6,15.6
	c-1.4,4-4.9,6-7.7,7c-3.7,1.3-5.7,3.5-6.9,7.6c-2,6.7-5.7,11.7-11,14.9c-1.8,0.9-3.6,1.7-5.5,2.4c5.9-2.8,10.6-7.5,14.4-14.3
	l0.3-0.6l-0.5,0.5c-0.5,0.5-1,0.9-1.6,1.4c-1.1,1-2.3,2.1-3.5,3c-3.6,3-8,4.9-12.6,5.6c-5.9,0.8-11.6-0.7-17.6-4.6
	c-6.1-4-11.4-9.4-17.1-17.4c-1.6-2.2-3.1-4.6-4.5-6.9c-0.7-1.1-1.4-2.2-2.1-3.3c-0.2-0.4-0.5-0.7-0.9-0.9l-0.3-0.2l0.9,1.6
	c7.3,13.7,14.8,27.8,29.4,35.6c-5.1-1.6-9.8-4.3-13.7-7.9c-7.1-6.3-12.7-14.3-16.3-23.1c-1.5-3.5-1.8-7.6-2.2-11
	C6.5,88.4,5.9,80.1,5.3,70c0.1-0.2,1-1,1.8-1.9c1.5-1.5,2.7-2.8,3.2-3.4c-0.2,0.8-1.1,2.4-1.8,3.7c-1,1.8-1.4,2.5-1.3,2.8
	c0.6,1.9,1.2,3.8,1.7,5.6c2.9,9.6,5.7,18.7,10.5,27.4c4.4,8,8.8,13.8,13.9,18.3c3.1,2.9,6.9,4.9,11.1,5.9c2.7,0.7,5.5,0,7.5-1.8
	c3.3-2.9,5.1-6.6,5.9-12.3l0-0.1l-0.1,0c-0.6,0-1.2-0.1-1.7-0.1c-1.2,0-2.3-0.1-3.4-0.2c-9.2-1.2-16.4-6.2-22.2-10.9
	c-2.5-2-4.3-4.8-4.9-7.9c-0.6-2.9-1.6-7.4-2.6-11.7c-0.8-3.4-1.6-6.7-2-9c0.3,0.3,0.7,0.5,1.1,0.8L23.3,76.1z M74.4,79.3
	c-0.2,0-0.3,0.1-0.6,0.1c-0.1,0-0.3,0-0.5,0.1c0.7-1,1.5-2.1,2.2-3.1c3.1-4.4,6-8.5,9.6-12.3c1.1,0.9,1.8,1.9,2.2,2.9
	c0.1,0.4,0.2,0.7,0.2,1.1c0.1,1.4-0.4,2.7-1.6,3.8C82,76,78.5,78.2,74.4,79.3z M75.4,76.2c-0.8,1.1-1.6,2.2-2.4,3.4l-0.2,0.2l0.3,0
	c0.3-0.1,0.6-0.1,0.8-0.1c0,0,0,0,0,0c-0.3,0.2-0.8,0.7-1.7,1.3c-1.5,1.2-3.9,3.1-5,3.8l0.2-0.3c0,0,0,0,0,0
	c3.1-4.2,8.8-10.8,13.4-15.8C79.1,71,77.3,73.6,75.4,76.2z M87.6,57.7L87.6,57.7l1-0.2C80.4,63.8,75,72.2,69.8,80.4
	c-0.6,0.9-1.2,1.9-1.8,2.8c0.7-1.8,1.5-3.6,2.3-5.3C74,70,79,62.6,87.6,57.7z M35.3,70.7c0.4,0,0.8-0.1,1.2-0.1
	c0.9,0,1.8,0.1,2.6,0.4c5.6,2.1,9.5,6.4,13.3,11c-0.8,0-1.6-0.1-2.4-0.1c-3.8-0.1-7.4-0.2-10.8-1.8c-2.6-1.2-5.2-5.6-5-8.2
	C34.3,71.4,34.7,70.9,35.3,70.7z M49.9,82.2c0.9,0,1.8,0,2.7,0.1l0.3,0l-0.2-0.2c-2.7-3.3-5.4-6.4-8.8-8.7c6.4,3.4,15.2,9.3,18.4,13
	c-3.9-0.3-13.3-2.7-19.2-4.7C45.3,82.1,47.6,82.2,49.9,82.2z M94.7,39.6c-1.9,2.2-3.9,4.2-5.8,6.2c-0.4,0.4-0.8,0.9-1.2,1.3
	c-0.8-1.2-1.6-2.4-2.4-3.6c-1.9-2.8-3.7-5.4-5.7-8c-4.7-5.8-11.1-9.5-19.6-11.2c-11.3-2.3-21.3-1.5-30.6,2.4
	c-7.6,3.2-12.3,8-14.2,14.7c-2,7,0.3,12.8,6.6,16.6c3.2,2,6.7,3.3,10.4,3.9C39,62.7,45.3,66,50,71.1c2.7,2.9,5.2,6.2,7.6,9.3
	c1,1.3,2,2.6,3,3.9c0.1,0.1,0.2,0.3,0.3,0.4c-5.3-4.9-16.9-12-21.8-13.9c-1.3-0.4-2.6-0.5-3.9-0.3c-0.7,0.2-1.1,0.8-1.3,1.5
	c-0.2,2.7,2.5,7.2,5.2,8.5c4.2,2,18.6,6,23.4,6.2l0.4,0.5l-0.2-0.5l0.1,0l-0.2-0.2C59.5,78.1,55,69,45.2,64.2c1.7,0.1,3.3,0.1,5,0.2
	c4.4,0.2,8.9,0.4,13.3,0.4c3.2-0.1,6.5-0.5,9.7-1c0.5-0.1,0.9-0.2,1.4-0.4c2.1-0.7,3.1-1.4,3.6-2.4c0.4-1,0.3-2.2-0.6-4.2l-1.8-4.1
	l0-0.1l-0.1,0c-2.1,0.4-4.2,0.8-6.2,1.1c-3.3,0.6-6.5,1.2-9.7,1.8c-1.4,0.3-2-0.1-2.4-1.3c-0.5-1.7-1.2-3.4-1.9-5.2
	c-0.3-0.8-0.6-1.5-0.9-2.3c7.9,1.4,14.9-1.1,22.3-3.7l0.5-0.2c2.7,4.1,5.7,8.8,8.7,13.4c0.1,0.1,0.1,0.3,0.2,0.4
	c0.2,0.4,0.4,0.8,0.9,0.9c-8.5,5-13.4,12.5-17.1,20.4c-1,2.1-1.8,4.2-2.6,6.2c-0.2,0.3-0.4,0.5-0.6,0.8l-0.2,0.2l0.3,0
	c0,0,0.1,0,0.1,0l-0.1,0.2l0.2-0.3c0.7-0.3,2.9-2,5.4-4c1-0.8,1.9-1.5,2.1-1.6c0,0,0,0,0,0c4.1-1.1,7.7-3.4,11.7-7.5
	c1.2-1.2,1.7-2.6,1.6-4c-0.1-1.6-1-3-2.6-4.3l-0.1-0.1l0,0l0,0l-0.1,0.1l0,0C81,68,73.7,76.2,69.1,82c0.3-0.5,0.6-0.9,0.9-1.4
	c5.3-8.3,10.8-17,19.2-23.3l0.4-0.3l-0.1,0l0.2-0.1L88,57.3c0.4-0.3,0.8-0.6,1.3-0.9c0.6-0.3,1.2-0.4,1.6-0.3
	c0.5,0.2,0.9,0.6,1.2,1.4c2.5,5.2,2.1,11.5-1.2,16.3c-5.6,8.9-13,14.4-22.3,16.5c-5.6,1.3-11.5,0.8-18.6-1.4
	c-10.3-3.1-19.8-7.9-28.3-14.3l-1.1-0.8c-1.2-0.9-2.3-1.8-3.5-2.8c-2.7-2.3-4.9-4.6-6.7-7l-0.2-0.6l0,0.3c-3-4.1-4.7-8.4-5.3-13.1
	c-0.7-5.8,0.6-11.7,3.8-16.6c6.8-11.6,18.3-19.6,31.6-21.9c1.8-0.4,3.6-0.5,5.5-0.5c4.5,0,9.3,1,15.1,3.1
	c9.1,3.3,17.6,8.9,25.9,17.1c0.4,0.4,0.8,0.8,1.3,1.3c0.3,0.3,0.7,0.7,1,1c0.1,0.1,0.1,0.1,0.3,0.1c0.1,0,0.2,0.1,0.3,0.1l0.4,0.1
	l-0.2-0.3c-4.7-6.2-10-11.8-16-16.7l0.2-0.3c1,0.7,2,1.4,3,2.1c2.2,1.5,4.5,3.1,6.5,4.8c4.6,3.8,8.4,8.4,11.1,13.7
	C94.9,38.4,94.9,39,94.7,39.6z"/>
</svg>
